<?xml version="1.0" standalone="no"?>
<!DOCTYPE svg PUBLIC "-//W3C//DTD SVG 20010904//EN"
 "http://www.w3.org/TR/2001/REC-SVG-20010904/DTD/svg10.dtd">
<svg version="1.0" xmlns="http://www.w3.org/2000/svg"
 width="605.000000pt" height="605.000000pt" viewBox="0 0 605.000000 605.000000"
 preserveAspectRatio="xMidYMid meet">
<metadata>
Created by potrace 1.14, written by Peter Selinger 2001-2017
</metadata>
<g transform="translate(0.000000,605.000000) scale(0.100000,-0.100000)"
fill="#000000" stroke="none">
<path d="M4215 5865 c17 -54 35 -163 35 -216 0 -82 -38 -192 -100 -289 -84
-130 -170 -197 -410 -323 -199 -104 -732 -327 -1020 -426 -439 -152 -537 -197
-639 -295 -42 -40 -95 -83 -119 -95 -46 -23 -82 -71 -82 -109 0 -14 15 -39 34
-58 29 -29 41 -34 80 -34 53 0 90 16 126 55 14 15 37 36 53 47 l27 20 20 -24
c11 -12 19 -28 20 -34 0 -6 -28 -19 -62 -28 -35 -10 -85 -26 -112 -38 -66 -27
-118 -20 -160 21 l-32 31 -29 -30 c-29 -30 -29 -30 -37 -9 -5 12 -6 38 -2 58
l5 36 -19 -24 c-10 -13 -41 -64 -67 -112 -56 -103 -81 -131 -96 -109 -5 8 -8
33 -5 55 l5 40 -25 -30 c-13 -16 -42 -65 -65 -108 -22 -42 -50 -83 -62 -91
-79 -47 -78 -46 -67 -67 9 -15 4 -43 -21 -124 l-32 -105 22 -82 c34 -123 98
-289 123 -315 23 -25 101 -57 159 -66 l37 -5 -14 26 c-16 29 -12 72 12 160
l15 53 51 -7 c54 -7 56 -4 20 39 -26 29 -3 40 59 29 30 -6 56 -8 58 -6 3 2 -6
15 -19 29 -13 14 -22 27 -19 29 7 6 130 57 187 77 49 17 56 17 84 3 32 -16 50
-12 30 8 -18 18 -15 24 16 37 24 10 36 8 82 -13 30 -14 73 -28 95 -32 l40 -7
-48 53 c-26 28 -47 58 -47 64 0 22 23 36 59 36 33 0 34 0 16 20 -17 19 -16 21
40 90 96 117 101 106 7 -14 -42 -53 -43 -56 -28 -78 24 -34 20 -39 -30 -36
-29 2 -48 -1 -51 -8 -2 -7 22 -40 54 -75 l58 -62 -60 5 c-33 4 -82 16 -109 27
-27 12 -57 19 -68 15 -18 -5 -18 -7 -3 -30 15 -24 15 -24 -14 -24 -17 0 -41 5
-55 11 -21 10 -40 6 -131 -31 l-106 -43 27 -28 c25 -26 26 -29 9 -35 -10 -4
-41 -3 -69 3 -28 6 -54 9 -59 6 -4 -2 5 -19 19 -36 l27 -32 -56 -3 c-52 -3
-57 -5 -57 -26 0 -24 28 -55 69 -76 22 -11 27 -10 50 17 101 118 357 219 648
257 299 39 512 125 568 230 11 20 26 36 34 36 27 0 80 -41 109 -85 16 -24 32
-42 36 -38 22 22 -11 198 -45 240 -32 38 42 25 101 -18 23 -17 43 -29 45 -27
11 10 -64 137 -111 187 -30 32 -54 65 -54 73 0 7 -7 23 -15 34 -15 22 -274
169 -333 189 -70 24 -164 -13 -217 -86 -28 -36 -33 -33 -11 9 32 62 104 102
181 102 51 0 57 -3 242 -107 l132 -75 37 18 c20 10 63 42 94 71 32 29 67 53
78 53 24 0 160 61 209 94 l36 25 51 -45 c55 -50 103 -78 154 -89 41 -9 55 -33
41 -74 -13 -37 -9 -45 76 -145 56 -66 57 -67 44 -99 -17 -39 -16 -267 1 -338
11 -44 10 -52 -9 -83 -12 -19 -26 -36 -32 -38 -15 -5 -41 -186 -36 -248 6 -70
-12 -110 -66 -150 -32 -24 -45 -42 -59 -87 -31 -98 -58 -222 -58 -266 0 -53
-15 -75 -71 -101 -33 -16 -57 -41 -105 -111 -69 -98 -97 -159 -114 -248 -11
-57 -12 -58 -64 -81 -60 -26 -76 -45 -170 -196 -51 -82 -66 -113 -66 -143 0
-30 -7 -45 -31 -67 -16 -16 -38 -32 -49 -35 -23 -7 -61 -141 -68 -241 -4 -64
-2 -76 22 -116 29 -51 33 -86 11 -127 -12 -24 -13 -65 -6 -263 8 -226 10 -237
34 -279 35 -62 41 -98 22 -152 -16 -49 -15 -81 10 -169 11 -39 11 -47 0 -52
-19 -7 -21 -2 -35 74 -7 36 -14 67 -16 69 -2 2 -30 -18 -61 -46 -87 -74 -153
-117 -165 -105 -6 6 15 27 59 60 94 70 179 160 188 201 6 26 0 46 -26 99 l-33
67 -4 210 c-2 116 -8 214 -13 219 -5 6 -15 3 -26 -6 -37 -32 -546 -368 -557
-367 -6 0 -38 33 -71 73 -63 77 -75 78 -75 12 0 -59 -22 -166 -34 -166 -23 0
-309 251 -477 419 -240 240 -328 364 -397 561 -65 186 -66 202 -58 1140 3 465
6 967 6 1117 l0 272 41 11 c121 33 467 98 664 126 40 5 60 16 99 51 27 24 69
56 93 70 24 14 42 27 41 29 -4 3 -50 -3 -303 -37 -193 -27 -380 -63 -682 -134
l-73 -17 -2 -547 c-2 -300 -3 -847 -3 -1216 0 -653 1 -672 22 -761 44 -184
116 -341 226 -490 70 -95 414 -437 567 -564 281 -233 556 -422 893 -614 l48
-27 163 85 c438 227 796 494 1162 867 164 168 249 275 319 403 60 111 113 277
130 406 14 111 24 892 26 1910 l1 525 -104 27 c-57 15 -108 26 -115 24 -12 -5
-77 -95 -71 -101 2 -2 39 -12 83 -22 l80 -18 -2 -1105 c-2 -718 -7 -1138 -14
-1200 -12 -108 -44 -226 -87 -321 -38 -85 -110 -199 -126 -199 -25 0 -160 42
-199 62 -86 43 -183 128 -236 206 -62 90 -121 323 -121 478 0 173 64 410 177
663 138 308 225 558 265 761 30 153 33 440 5 539 -23 85 -89 248 -129 318 -94
167 -251 265 -493 307 -154 27 -170 25 -315 -49 -92 -47 -139 -78 -169 -110
-38 -41 -51 -65 -35 -65 9 0 123 34 286 85 143 46 302 80 318 70 23 -14 4 -34
-90 -93 -215 -134 -406 -292 -412 -340 -4 -24 -5 -25 -13 -8 -5 12 -3 28 7 45
26 44 154 146 330 264 92 61 166 113 164 114 -7 7 -168 -30 -274 -63 -182 -57
-346 -103 -350 -99 -13 12 15 63 58 106 41 41 89 69 273 158 386 189 573 297
679 390 150 133 249 357 234 531 -6 74 -57 245 -81 275 -17 20 -17 20 -10 0z
m-1479 -1580 c-16 -12 -54 -15 -172 -15 -88 0 -163 -5 -177 -11 -16 -7 -27
-25 -35 -54 -11 -40 -64 -115 -81 -115 -4 0 -1 31 7 69 15 68 16 70 66 98 50
27 55 28 214 29 89 1 166 4 169 8 3 3 11 6 17 6 6 0 2 -7 -8 -15z m-1085 -665
c5 0 9 -6 9 -13 0 -10 -13 -13 -42 -13 -36 1 -44 -3 -59 -29 -29 -52 -31 -70
-8 -99 25 -31 37 -25 56 27 11 31 12 31 12 6 1 -37 -19 -89 -34 -89 -15 0 -39
22 -62 56 -37 57 41 175 105 158 8 -2 18 -4 23 -4z"/>
<path d="M4045 5672 c0 -118 -12 -166 -71 -285 -49 -100 -114 -194 -191 -277
l-68 -74 80 43 c44 23 114 66 156 96 77 54 77 54 108 141 41 112 54 215 41
317 -9 71 -28 129 -47 140 -5 3 -8 -43 -8 -101z"/>
<path d="M3034 4869 c-258 -184 -385 -232 -411 -154 l-8 26 -65 -45 c-68 -47
-234 -192 -243 -213 -3 -6 24 1 61 17 37 15 121 46 187 68 194 64 367 128 515
189 l139 58 -25 26 c-14 15 -31 43 -38 63 l-12 36 -100 -71z"/>
<path d="M3557 4730 l-78 -38 58 -7 c107 -12 176 -26 238 -50 198 -74 290
-160 386 -360 150 -312 154 -624 16 -1064 -30 -94 -53 -171 -52 -171 1 0 16 5
34 11 27 10 31 15 31 48 0 55 28 127 64 165 27 29 31 40 28 77 -5 73 30 129
106 166 2 0 -9 20 -24 43 -35 53 -43 132 -20 193 22 58 91 124 146 140 l45 13
-40 21 c-49 26 -110 88 -124 126 -36 96 36 241 158 318 40 26 42 28 20 33 -13
3 -85 10 -159 15 -201 14 -245 40 -245 140 0 75 29 122 104 164 53 30 55 32
27 35 -15 2 -112 -6 -215 -18 -212 -25 -296 -23 -368 11 -26 13 -50 24 -53 25
-3 1 -40 -15 -83 -36z"/>
<path d="M3576 4261 c-4 -5 -49 -30 -102 -55 l-95 -46 49 -57 c27 -32 54 -67
60 -78 9 -18 19 -21 77 -19 36 1 71 6 77 12 5 5 10 25 10 44 0 34 -19 160 -28
191 -6 18 -39 24 -48 8z"/>
<path d="M3650 4220 c0 -4 7 -43 15 -85 13 -69 13 -81 -1 -114 -9 -20 -17 -51
-19 -69 -2 -27 3 -36 26 -48 15 -7 48 -14 72 -14 l45 0 6 43 c4 23 15 74 24
113 10 39 16 76 14 82 -2 7 -21 16 -42 22 -21 6 -61 26 -89 45 -28 18 -51 30
-51 25z"/>
<path d="M3294 4119 c-27 -27 -66 -57 -87 -67 -29 -13 -36 -21 -32 -37 2 -11
5 -28 5 -37 0 -9 13 -26 30 -38 l30 -21 82 26 c45 14 94 25 108 24 43 -2 50 0
50 19 0 22 -23 55 -86 125 l-50 57 -50 -51z"/>
<path d="M3819 3953 l-14 -78 -44 -5 c-43 -5 -44 -6 -58 -55 -8 -27 -22 -58
-30 -67 -20 -22 -11 -47 37 -93 39 -38 40 -38 61 -19 38 34 156 178 172 210
l16 32 -50 63 c-80 100 -74 100 -90 12z"/>
<path d="M3893 3747 c-45 -60 -127 -147 -139 -147 -5 0 -22 12 -39 26 l-30 26
-6 -74 c-7 -82 -15 -103 -65 -165 -19 -23 -34 -44 -34 -48 0 -13 52 -120 72
-147 l20 -28 41 32 c58 44 220 198 233 221 7 13 8 36 2 70 -5 29 -9 103 -9
165 -1 61 -4 112 -7 112 -4 0 -21 -20 -39 -43z"/>
<path d="M3804 3271 c-45 -42 -95 -84 -112 -93 l-30 -18 -29 46 -30 45 -71
-90 c-40 -49 -88 -99 -107 -111 -49 -30 -53 -58 -21 -139 45 -116 36 -113 162
-46 145 78 269 158 288 187 10 15 15 48 15 98 0 41 5 102 11 134 5 33 9 61 7
62 -1 1 -39 -33 -83 -75z"/>
<path d="M3700 2913 c-114 -70 -241 -135 -255 -129 -8 3 -29 36 -46 75 l-33
69 -65 -59 c-36 -32 -73 -59 -82 -59 -33 0 -52 -37 -57 -112 -4 -66 11 -215
24 -227 7 -7 413 69 451 85 38 15 53 40 53 92 0 21 16 96 35 167 19 70 34 129
33 130 -2 1 -28 -13 -58 -32z"/>
<path d="M3015 2568 c-66 -57 -129 -108 -140 -114 -11 -6 -29 -28 -40 -50 -17
-34 -20 -63 -23 -221 l-4 -183 25 0 c37 0 202 35 377 80 171 44 184 53 195
123 10 62 39 121 106 220 34 49 59 90 57 92 -2 2 -22 0 -43 -5 -101 -24 -318
-61 -338 -58 -25 4 -33 29 -44 141 l-8 77 -120 -102z"/>
<path d="M2719 2240 c-31 -41 -93 -129 -137 -195 -50 -74 -92 -126 -111 -137
-40 -22 -48 -58 -29 -133 20 -75 105 -254 124 -262 19 -7 293 87 404 139 105
48 130 71 130 116 0 34 76 171 142 255 16 20 24 37 19 37 -6 0 -61 -13 -123
-29 -124 -33 -275 -61 -325 -61 l-33 0 -2 173 -3 172 -56 -75z"/>
<path d="M2393 1654 c-17 -55 -48 -169 -69 -254 -20 -85 -55 -198 -77 -250
-46 -112 -51 -131 -43 -164 7 -27 162 -226 177 -226 7 0 421 272 542 356 41
28 77 78 77 106 0 10 -14 41 -31 69 -29 46 -31 55 -25 110 3 33 15 96 26 141
12 44 19 82 17 84 -2 2 -24 -3 -48 -12 -251 -91 -375 -133 -387 -134 -3 0
-102 207 -118 249 -9 20 -14 10 -41 -75z"/>
</g>
</svg>
